<svg xmlns="http://www.w3.org/2000/svg" width="1984" height="2243" viewBox="0 0 1984 2243" role="img">
  <title>Object Model — EBSD</title>
  <desc>UML-style object model of pytex.ebsd: the crystal map and its phases, grain segmentation and the grain graph, boundary networks, and the workflow object that turns a normalized map into texture outputs.</desc>
  <defs>
    <marker id="cd-arrow" markerUnits="userSpaceOnUse" markerWidth="12" markerHeight="9" refX="11" refY="4.5" orient="auto">
      <path d="M0,0 L12,4.5 L0,9 z" fill="#40506f"/>
    </marker>
    <marker id="cd-triangle" markerUnits="userSpaceOnUse" markerWidth="14" markerHeight="12" refX="1" refY="6" orient="auto">
      <path d="M13,0 L1,6 L13,12 z" fill="#ffffff" stroke="#334155" stroke-width="1.4"/>
    </marker>
    <marker id="cd-diamond" markerUnits="userSpaceOnUse" markerWidth="15" markerHeight="10" refX="1" refY="5" orient="auto">
      <path d="M1,5 L8,1 L15,5 L8,9 z" fill="#07122f"/>
    </marker>
  </defs>
  <rect width="1984" height="2243" fill="#fbfdff"/>
  <text x="40.0" y="46.0" font-size="25" font-family="Arial" fill="#07122f" text-anchor="start">Object Model — EBSD</text>
  <text x="40.0" y="72.0" font-size="13" font-family="Arial" fill="#40506f" text-anchor="start">Crystal maps, grain segmentation, boundary networks, and the texture workflow</text>
  <path d="M639.3,1362.0 C639.3,1404.0 505.1,1420.0 505.1,1462.0" fill="none" stroke="#40506f" stroke-width="1.6" stroke-dasharray="6 5" marker-end="url(#cd-arrow)"/>
  <path d="M842.5,1019.0 C842.5,1061.0 639.3,1077.0 639.3,1119.0" fill="none" stroke="#40506f" stroke-width="1.6" stroke-dasharray="6 5" marker-end="url(#cd-arrow)"/>
  <path d="M728.1,1019.0 C728.1,1205.1 682.5,1275.9 682.5,1462.0" fill="none" stroke="#40506f" stroke-width="1.3" stroke-dasharray="6 5" opacity="0.55" marker-end="url(#cd-arrow)"/>
  <path d="M956.9,1019.0 C956.9,1061.0 854.3,1077.0 854.3,1119.0" fill="none" stroke="#40506f" stroke-width="1.6" stroke-dasharray="6 5" marker-end="url(#cd-arrow)"/>
  <path d="M1031.7,1322.0 C1031.7,1380.8 968.5,1403.2 968.5,1462.0" fill="none" stroke="#40506f" stroke-width="1.6" stroke-dasharray="6 5" marker-end="url(#cd-arrow)"/>
  <path d="M862.1,353.0 C862.1,818.8 792.3,996.2 792.3,1462.0" fill="none" stroke="#40506f" stroke-width="1.3" stroke-dasharray="6 5" opacity="0.40" marker-end="url(#cd-arrow)"/>
  <path d="M744.1,353.0 C744.1,962.8 668.7,1195.2 668.7,1805.0" fill="none" stroke="#40506f" stroke-width="1.3" stroke-dasharray="6 5" opacity="0.40" marker-end="url(#cd-arrow)"/>
  <path d="M980.1,353.0 C980.1,674.7 1031.7,797.3 1031.7,1119.0" fill="none" stroke="#40506f" stroke-width="1.3" stroke-dasharray="6 5" opacity="0.40" marker-end="url(#cd-arrow)"/>
  <path d="M1303.9,353.0 C1303.9,395.0 1064.6,411.0 1064.6,453.0" fill="none" stroke="#40506f" stroke-width="1.6" stroke-dasharray="6 5" marker-end="url(#cd-arrow)"/>
  <path d="M880.4,1705.0 C880.4,1747.0 763.0,1763.0 763.0,1805.0" fill="none" stroke="#07122f" stroke-width="1.6" marker-end="url(#cd-arrow)" marker-start="url(#cd-diamond)"/>
  <path d="M125.0,253.0 C125.0,337.0 65.5,369.0 65.5,453.0" fill="none" stroke="#07122f" stroke-width="1.6" marker-end="url(#cd-arrow)" marker-start="url(#cd-diamond)"/>
  <path d="M319.1,233.0 C319.1,325.4 184.6,360.6 184.6,453.0" fill="none" stroke="#07122f" stroke-width="1.6" marker-end="url(#cd-arrow)" marker-start="url(#cd-diamond)"/>
  <path d="M854.3,1322.0 C854.3,1524.9 857.2,1602.1 857.2,1805.0" fill="none" stroke="#07122f" stroke-width="1.3" opacity="0.55" marker-end="url(#cd-arrow)" marker-start="url(#cd-diamond)"/>
  <path d="M1516.5,293.0 C1516.5,360.2 1153.3,385.8 1153.3,453.0" fill="none" stroke="#07122f" stroke-width="1.6" marker-end="url(#cd-arrow)" marker-start="url(#cd-diamond)"/>
  <path d="M1815.6,293.0 C1815.6,360.2 1242.0,385.8 1242.0,453.0" fill="none" stroke="#07122f" stroke-width="1.6" marker-end="url(#cd-arrow)" marker-start="url(#cd-diamond)"/>
  <path d="M1064.6,676.0 C1064.6,718.0 728.1,734.0 728.1,776.0" fill="none" stroke="#07122f" stroke-width="1.6" marker-end="url(#cd-arrow)" marker-start="url(#cd-diamond)"/>
  <path d="M1242.0,676.0 C1242.0,718.0 1166.6,734.0 1166.6,776.0" fill="none" stroke="#07122f" stroke-width="1.6" marker-end="url(#cd-arrow)" marker-start="url(#cd-diamond)"/>
  <path d="M1106.9,353.0 C1106.9,530.7 956.9,598.3 956.9,776.0" fill="none" stroke="#07122f" stroke-width="1.3" opacity="0.55" marker-end="url(#cd-arrow)" marker-start="url(#cd-diamond)"/>
  <rect x="679.1" y="776.0" width="326.8" height="243.0" rx="8" fill="#e9f7f7" stroke="#0f9f9f" stroke-width="2.0"/>
  <rect x="680.1" y="777.0" width="324.8" height="4" rx="2" fill="#0f9f9f" opacity="0.85"/>
  <text x="694.1" y="805.0" font-size="18" font-family="Arial" fill="#07122f" text-anchor="start" font-weight="bold">CrystalMap</text>
  <text x="694.1" y="822.0" font-size="13" font-family="Arial" fill="#40506f" text-anchor="start">ebsd.models</text>
  <text x="694.1" y="840.0" font-size="13" font-family="Arial" fill="#0f9f9f" text-anchor="start">«frozen dataclass»</text>
  <line x1="680.1" y1="844.0" x2="1004.9" y2="844.0" stroke="#0f9f9f" stroke-width="1" opacity="0.35"/>
  <text x="694.1" y="866.0" font-size="15" font-family="Arial" fill="#07122f" text-anchor="start">phase_entries: CrystalMapPhase[]</text>
  <text x="694.1" y="886.0" font-size="15" font-family="Arial" fill="#07122f" text-anchor="start">acquisition_geometry: AcquisitionGeometry?</text>
  <text x="694.1" y="906.0" font-size="15" font-family="Arial" fill="#07122f" text-anchor="start">calibration_record: CalibrationRecord?</text>
  <text x="694.1" y="926.0" font-size="15" font-family="Arial" fill="#07122f" text-anchor="start">coordinates: ndarray</text>
  <text x="694.1" y="946.0" font-size="15" font-family="Arial" fill="#07122f" text-anchor="start">orientations: OrientationSet</text>
  <text x="694.1" y="966.0" font-size="15" font-family="Arial" fill="#07122f" text-anchor="start">map_frame: ReferenceFrame</text>
  <text x="694.1" y="986.0" font-size="15" font-family="Arial" fill="#07122f" text-anchor="start">phase_ids: ndarray?</text>
  <text x="694.1" y="1006.0" font-size="15" font-family="Arial" fill="#40506f" text-anchor="start">+ 7 more</text>
  <rect x="1026.6" y="453.0" width="253.4" height="223.0" rx="8" fill="#e9f7f7" stroke="#0f9f9f" stroke-width="1.2"/>
  <rect x="1027.6" y="454.0" width="251.4" height="4" rx="2" fill="#0f9f9f" opacity="0.85"/>
  <text x="1041.6" y="482.0" font-size="18" font-family="Arial" fill="#07122f" text-anchor="start" font-weight="bold">GrainSegmentation</text>
  <text x="1041.6" y="499.0" font-size="13" font-family="Arial" fill="#40506f" text-anchor="start">ebsd.models</text>
  <text x="1041.6" y="517.0" font-size="13" font-family="Arial" fill="#0f9f9f" text-anchor="start">«frozen dataclass»</text>
  <line x1="1027.6" y1="521.0" x2="1279.0" y2="521.0" stroke="#0f9f9f" stroke-width="1" opacity="0.35"/>
  <text x="1041.6" y="543.0" font-size="15" font-family="Arial" fill="#07122f" text-anchor="start">crystal_map: CrystalMap</text>
  <text x="1041.6" y="563.0" font-size="15" font-family="Arial" fill="#07122f" text-anchor="start">grains: Grain[]</text>
  <text x="1041.6" y="583.0" font-size="15" font-family="Arial" fill="#07122f" text-anchor="start">labels: ndarray</text>
  <text x="1041.6" y="603.0" font-size="15" font-family="Arial" fill="#07122f" text-anchor="start">max_misorientation_deg: float</text>
  <text x="1041.6" y="623.0" font-size="15" font-family="Arial" fill="#07122f" text-anchor="start">connectivity: int</text>
  <text x="1041.6" y="643.0" font-size="15" font-family="Arial" fill="#07122f" text-anchor="start">symmetry_aware: bool</text>
  <text x="1041.6" y="663.0" font-size="15" font-family="Arial" fill="#07122f" text-anchor="start">provenance: ProvenanceRecord?</text>
  <rect x="1064.7" y="110.0" width="281.5" height="243.0" rx="8" fill="#e9f7f7" stroke="#0f9f9f" stroke-width="1.2"/>
  <rect x="1065.7" y="111.0" width="279.5" height="4" rx="2" fill="#0f9f9f" opacity="0.85"/>
  <text x="1079.7" y="139.0" font-size="18" font-family="Arial" fill="#07122f" text-anchor="start" font-weight="bold">EBSDTextureWorkflowResult</text>
  <text x="1079.7" y="156.0" font-size="13" font-family="Arial" fill="#40506f" text-anchor="start">ebsd.texture_workflow</text>
  <text x="1079.7" y="174.0" font-size="13" font-family="Arial" fill="#0f9f9f" text-anchor="start">«frozen dataclass»</text>
  <line x1="1065.7" y1="178.0" x2="1345.2" y2="178.0" stroke="#0f9f9f" stroke-width="1" opacity="0.35"/>
  <text x="1079.7" y="200.0" font-size="15" font-family="Arial" fill="#07122f" text-anchor="start">crystal_map: CrystalMap</text>
  <text x="1079.7" y="220.0" font-size="15" font-family="Arial" fill="#07122f" text-anchor="start">segmentation: GrainSegmentation?</text>
  <text x="1079.7" y="240.0" font-size="15" font-family="Arial" fill="#07122f" text-anchor="start">texture_report: TextureReport</text>
  <text x="1079.7" y="260.0" font-size="15" font-family="Arial" fill="#07122f" text-anchor="start">odf: ODF</text>
  <text x="1079.7" y="280.0" font-size="15" font-family="Arial" fill="#07122f" text-anchor="start">weights: ndarray</text>
  <text x="1079.7" y="300.0" font-size="15" font-family="Arial" fill="#07122f" text-anchor="start">experiment_manifest: Any?</text>
  <text x="1079.7" y="320.0" font-size="15" font-family="Arial" fill="#07122f" text-anchor="start">metadata: {str: str}</text>
  <text x="1079.7" y="340.0" font-size="15" font-family="Arial" fill="#40506f" text-anchor="start">+ 1 more</text>
  <rect x="40.0" y="453.0" width="170.1" height="163.0" rx="8" fill="#e9f7f7" stroke="#0f9f9f" stroke-width="1.2"/>
  <rect x="41.0" y="454.0" width="168.1" height="4" rx="2" fill="#0f9f9f" opacity="0.85"/>
  <text x="55.0" y="482.0" font-size="18" font-family="Arial" fill="#07122f" text-anchor="start" font-weight="bold">CSLType</text>
  <text x="55.0" y="499.0" font-size="13" font-family="Arial" fill="#40506f" text-anchor="start">ebsd.csl</text>
  <text x="55.0" y="517.0" font-size="13" font-family="Arial" fill="#0f9f9f" text-anchor="start">«frozen dataclass»</text>
  <line x1="41.0" y1="521.0" x2="209.1" y2="521.0" stroke="#0f9f9f" stroke-width="1" opacity="0.35"/>
  <text x="55.0" y="543.0" font-size="15" font-family="Arial" fill="#07122f" text-anchor="start">sigma: int</text>
  <text x="55.0" y="563.0" font-size="15" font-family="Arial" fill="#07122f" text-anchor="start">angle_deg: float</text>
  <text x="55.0" y="583.0" font-size="15" font-family="Arial" fill="#07122f" text-anchor="start">axis: tuple[int, int, int]</text>
  <text x="55.0" y="603.0" font-size="15" font-family="Arial" fill="#07122f" text-anchor="start">variant: str</text>
  <rect x="816.3" y="1119.0" width="253.4" height="203.0" rx="8" fill="#e9f7f7" stroke="#0f9f9f" stroke-width="1.2"/>
  <rect x="817.3" y="1120.0" width="251.4" height="4" rx="2" fill="#0f9f9f" opacity="0.85"/>
  <text x="831.3" y="1148.0" font-size="18" font-family="Arial" fill="#07122f" text-anchor="start" font-weight="bold">CrystalMapPhase</text>
  <text x="831.3" y="1165.0" font-size="13" font-family="Arial" fill="#40506f" text-anchor="start">ebsd.models</text>
  <text x="831.3" y="1183.0" font-size="13" font-family="Arial" fill="#0f9f9f" text-anchor="start">«frozen dataclass»</text>
  <line x1="817.3" y1="1187.0" x2="1068.7" y2="1187.0" stroke="#0f9f9f" stroke-width="1" opacity="0.35"/>
  <text x="831.3" y="1209.0" font-size="15" font-family="Arial" fill="#07122f" text-anchor="start">symmetry: SymmetrySpec</text>
  <text x="831.3" y="1229.0" font-size="15" font-family="Arial" fill="#07122f" text-anchor="start">phase: Phase?</text>
  <text x="831.3" y="1249.0" font-size="15" font-family="Arial" fill="#07122f" text-anchor="start">phase_id: int</text>
  <text x="831.3" y="1269.0" font-size="15" font-family="Arial" fill="#07122f" text-anchor="start">name: str</text>
  <text x="831.3" y="1289.0" font-size="15" font-family="Arial" fill="#07122f" text-anchor="start">aliases: str[]</text>
  <text x="831.3" y="1309.0" font-size="15" font-family="Arial" fill="#07122f" text-anchor="start">provenance: ProvenanceRecord?</text>
  <rect x="1380.2" y="110.0" width="272.6" height="183.0" rx="8" fill="#e9f7f7" stroke="#0f9f9f" stroke-width="1.2"/>
  <rect x="1381.2" y="111.0" width="270.6" height="4" rx="2" fill="#0f9f9f" opacity="0.85"/>
  <text x="1395.2" y="139.0" font-size="18" font-family="Arial" fill="#07122f" text-anchor="start" font-weight="bold">GrainBoundaryNetwork</text>
  <text x="1395.2" y="156.0" font-size="13" font-family="Arial" fill="#40506f" text-anchor="start">ebsd.models</text>
  <text x="1395.2" y="174.0" font-size="13" font-family="Arial" fill="#0f9f9f" text-anchor="start">«frozen dataclass»</text>
  <line x1="1381.2" y1="178.0" x2="1651.8" y2="178.0" stroke="#0f9f9f" stroke-width="1" opacity="0.35"/>
  <text x="1395.2" y="200.0" font-size="15" font-family="Arial" fill="#07122f" text-anchor="start">segmentation: GrainSegmentation</text>
  <text x="1395.2" y="220.0" font-size="15" font-family="Arial" fill="#07122f" text-anchor="start">segments: GrainBoundarySegment[]</text>
  <text x="1395.2" y="240.0" font-size="15" font-family="Arial" fill="#07122f" text-anchor="start">min_misorientation_deg: float</text>
  <text x="1395.2" y="260.0" font-size="15" font-family="Arial" fill="#07122f" text-anchor="start">high_angle_threshold_deg: float</text>
  <text x="1395.2" y="280.0" font-size="15" font-family="Arial" fill="#07122f" text-anchor="start">provenance: ProvenanceRecord?</text>
  <rect x="1686.8" y="110.0" width="257.6" height="183.0" rx="8" fill="#e9f7f7" stroke="#0f9f9f" stroke-width="1.2"/>
  <rect x="1687.8" y="111.0" width="255.6" height="4" rx="2" fill="#0f9f9f" opacity="0.85"/>
  <text x="1701.8" y="139.0" font-size="18" font-family="Arial" fill="#07122f" text-anchor="start" font-weight="bold">GrainGraph</text>
  <text x="1701.8" y="156.0" font-size="13" font-family="Arial" fill="#40506f" text-anchor="start">ebsd.models</text>
  <text x="1701.8" y="174.0" font-size="13" font-family="Arial" fill="#0f9f9f" text-anchor="start">«frozen dataclass»</text>
  <line x1="1687.8" y1="178.0" x2="1943.4" y2="178.0" stroke="#0f9f9f" stroke-width="1" opacity="0.35"/>
  <text x="1701.8" y="200.0" font-size="15" font-family="Arial" fill="#07122f" text-anchor="start">segmentation: GrainSegmentation</text>
  <text x="1701.8" y="220.0" font-size="15" font-family="Arial" fill="#07122f" text-anchor="start">edges: GrainGraphEdge[]</text>
  <text x="1701.8" y="240.0" font-size="15" font-family="Arial" fill="#07122f" text-anchor="start">node_grain_ids: ndarray</text>
  <text x="1701.8" y="260.0" font-size="15" font-family="Arial" fill="#07122f" text-anchor="start">high_angle_threshold_deg: float</text>
  <text x="1701.8" y="280.0" font-size="15" font-family="Arial" fill="#07122f" text-anchor="start">provenance: ProvenanceRecord?</text>
  <rect x="693.6" y="110.0" width="337.1" height="243.0" rx="8" fill="#e9f7f7" stroke="#0f9f9f" stroke-width="1.2"/>
  <rect x="694.6" y="111.0" width="335.1" height="4" rx="2" fill="#0f9f9f" opacity="0.85"/>
  <text x="708.6" y="139.0" font-size="18" font-family="Arial" fill="#07122f" text-anchor="start" font-weight="bold">EBSDTextureWorkflow</text>
  <text x="708.6" y="156.0" font-size="13" font-family="Arial" fill="#40506f" text-anchor="start">ebsd.texture_workflow</text>
  <text x="708.6" y="174.0" font-size="13" font-family="Arial" fill="#0f9f9f" text-anchor="start">«frozen dataclass»</text>
  <line x1="694.6" y1="178.0" x2="1029.7" y2="178.0" stroke="#0f9f9f" stroke-width="1" opacity="0.35"/>
  <text x="708.6" y="200.0" font-size="15" font-family="Arial" fill="#07122f" text-anchor="start">phase: int | str | Phase | CrystalMapPhase?</text>
  <text x="708.6" y="220.0" font-size="15" font-family="Arial" fill="#07122f" text-anchor="start">specimen_symmetry: SymmetrySpec?</text>
  <text x="708.6" y="240.0" font-size="15" font-family="Arial" fill="#07122f" text-anchor="start">poles: CrystalPlane | _Buffer | _SupportsArra…</text>
  <text x="708.6" y="260.0" font-size="15" font-family="Arial" fill="#07122f" text-anchor="start">sample_directions: str | _Buffer | _SupportsA…</text>
  <text x="708.6" y="280.0" font-size="15" font-family="Arial" fill="#07122f" text-anchor="start">weights: OrientationQualityWeights?</text>
  <text x="708.6" y="300.0" font-size="15" font-family="Arial" fill="#07122f" text-anchor="start">kernel: KernelSpec</text>
  <text x="708.6" y="320.0" font-size="15" font-family="Arial" fill="#07122f" text-anchor="start">include_symmetry_family: bool</text>
  <text x="708.6" y="340.0" font-size="15" font-family="Arial" fill="#40506f" text-anchor="start">+ 5 more</text>
  <rect x="45.0" y="110.0" width="160.1" height="143.0" rx="8" fill="#e9f7f7" stroke="#0f9f9f" stroke-width="1.2"/>
  <rect x="46.0" y="111.0" width="158.1" height="4" rx="2" fill="#0f9f9f" opacity="0.85"/>
  <text x="60.0" y="139.0" font-size="18" font-family="Arial" fill="#07122f" text-anchor="start" font-weight="bold">CSLMatch</text>
  <text x="60.0" y="156.0" font-size="13" font-family="Arial" fill="#40506f" text-anchor="start">ebsd.csl</text>
  <text x="60.0" y="174.0" font-size="13" font-family="Arial" fill="#0f9f9f" text-anchor="start">«frozen dataclass»</text>
  <line x1="46.0" y1="178.0" x2="204.1" y2="178.0" stroke="#0f9f9f" stroke-width="1" opacity="0.35"/>
  <text x="60.0" y="200.0" font-size="15" font-family="Arial" fill="#07122f" text-anchor="start">csl: CSLType</text>
  <text x="60.0" y="220.0" font-size="15" font-family="Arial" fill="#07122f" text-anchor="start">sigma: int</text>
  <text x="60.0" y="240.0" font-size="15" font-family="Arial" fill="#07122f" text-anchor="start">deviation_deg: float</text>
  <rect x="239.1" y="110.0" width="160.0" height="123.0" rx="8" fill="#e9f7f7" stroke="#0f9f9f" stroke-width="1.2"/>
  <rect x="240.1" y="111.0" width="158.0" height="4" rx="2" fill="#0f9f9f" opacity="0.85"/>
  <text x="254.1" y="139.0" font-size="18" font-family="Arial" fill="#07122f" text-anchor="start" font-weight="bold">TwinLaw</text>
  <text x="254.1" y="156.0" font-size="13" font-family="Arial" fill="#40506f" text-anchor="start">ebsd.csl</text>
  <text x="254.1" y="174.0" font-size="13" font-family="Arial" fill="#0f9f9f" text-anchor="start">«frozen dataclass»</text>
  <line x1="240.1" y1="178.0" x2="398.1" y2="178.0" stroke="#0f9f9f" stroke-width="1" opacity="0.35"/>
  <text x="254.1" y="200.0" font-size="15" font-family="Arial" fill="#07122f" text-anchor="start">csl: CSLType</text>
  <text x="254.1" y="220.0" font-size="15" font-family="Arial" fill="#07122f" text-anchor="start">name: str</text>
  <rect x="1039.9" y="776.0" width="253.4" height="183.0" rx="8" fill="#e9f7f7" stroke="#0f9f9f" stroke-width="1.2"/>
  <rect x="1040.9" y="777.0" width="251.4" height="4" rx="2" fill="#0f9f9f" opacity="0.85"/>
  <text x="1054.9" y="805.0" font-size="18" font-family="Arial" fill="#07122f" text-anchor="start" font-weight="bold">Grain</text>
  <text x="1054.9" y="822.0" font-size="13" font-family="Arial" fill="#40506f" text-anchor="start">ebsd.models</text>
  <text x="1054.9" y="840.0" font-size="13" font-family="Arial" fill="#0f9f9f" text-anchor="start">«frozen dataclass»</text>
  <line x1="1040.9" y1="844.0" x2="1292.3" y2="844.0" stroke="#0f9f9f" stroke-width="1" opacity="0.35"/>
  <text x="1054.9" y="866.0" font-size="15" font-family="Arial" fill="#07122f" text-anchor="start">grain_id: int</text>
  <text x="1054.9" y="886.0" font-size="15" font-family="Arial" fill="#07122f" text-anchor="start">member_indices: ndarray</text>
  <text x="1054.9" y="906.0" font-size="15" font-family="Arial" fill="#07122f" text-anchor="start">mean_coordinate: ndarray</text>
  <text x="1054.9" y="926.0" font-size="15" font-family="Arial" fill="#07122f" text-anchor="start">reference_orientation_index: int</text>
  <text x="1054.9" y="946.0" font-size="15" font-family="Arial" fill="#07122f" text-anchor="start">provenance: ProvenanceRecord?</text>
  <rect x="754.5" y="1462.0" width="251.8" height="243.0" rx="8" fill="#eef4ff" stroke="#2563eb" stroke-width="1.2"/>
  <rect x="755.5" y="1463.0" width="249.8" height="4" rx="2" fill="#2563eb" opacity="0.85"/>
  <text x="769.5" y="1491.0" font-size="18" font-family="Arial" fill="#07122f" text-anchor="start" font-weight="bold">Phase</text>
  <text x="769.5" y="1508.0" font-size="13" font-family="Arial" fill="#40506f" text-anchor="start">core.lattice</text>
  <text x="769.5" y="1526.0" font-size="13" font-family="Arial" fill="#2563eb" text-anchor="start">«frozen dataclass»</text>
  <line x1="755.5" y1="1530.0" x2="1005.3" y2="1530.0" stroke="#2563eb" stroke-width="1" opacity="0.35"/>
  <text x="769.5" y="1552.0" font-size="15" font-family="Arial" fill="#07122f" text-anchor="start">symmetry: SymmetrySpec</text>
  <text x="769.5" y="1572.0" font-size="15" font-family="Arial" fill="#07122f" text-anchor="start">name: str</text>
  <text x="769.5" y="1592.0" font-size="15" font-family="Arial" fill="#07122f" text-anchor="start">lattice: Lattice</text>
  <text x="769.5" y="1612.0" font-size="15" font-family="Arial" fill="#07122f" text-anchor="start">crystal_frame: ReferenceFrame</text>
  <text x="769.5" y="1632.0" font-size="15" font-family="Arial" fill="#07122f" text-anchor="start">unit_cell: UnitCell?</text>
  <text x="769.5" y="1652.0" font-size="15" font-family="Arial" fill="#07122f" text-anchor="start">space_group: SpaceGroupSpec?</text>
  <text x="769.5" y="1672.0" font-size="15" font-family="Arial" fill="#07122f" text-anchor="start">space_group_symbol: str?</text>
  <text x="769.5" y="1692.0" font-size="15" font-family="Arial" fill="#40506f" text-anchor="start">+ 4 more</text>
  <rect x="628.3" y="1805.0" width="269.2" height="203.0" rx="8" fill="#eef4ff" stroke="#2563eb" stroke-width="1.2"/>
  <rect x="629.3" y="1806.0" width="267.2" height="4" rx="2" fill="#2563eb" opacity="0.85"/>
  <text x="643.3" y="1834.0" font-size="18" font-family="Arial" fill="#07122f" text-anchor="start" font-weight="bold">SymmetrySpec</text>
  <text x="643.3" y="1851.0" font-size="13" font-family="Arial" fill="#40506f" text-anchor="start">core.symmetry</text>
  <text x="643.3" y="1869.0" font-size="13" font-family="Arial" fill="#2563eb" text-anchor="start">«frozen dataclass»</text>
  <line x1="629.3" y1="1873.0" x2="896.6" y2="1873.0" stroke="#2563eb" stroke-width="1" opacity="0.35"/>
  <text x="643.3" y="1895.0" font-size="15" font-family="Arial" fill="#07122f" text-anchor="start">name: str</text>
  <text x="643.3" y="1915.0" font-size="15" font-family="Arial" fill="#07122f" text-anchor="start">point_group: str</text>
  <text x="643.3" y="1935.0" font-size="15" font-family="Arial" fill="#07122f" text-anchor="start">operators: ndarray</text>
  <text x="643.3" y="1955.0" font-size="15" font-family="Arial" fill="#07122f" text-anchor="start">specimen_symmetry: str?</text>
  <text x="643.3" y="1975.0" font-size="15" font-family="Arial" fill="#07122f" text-anchor="start">reference_frame: ReferenceFrame?</text>
  <text x="643.3" y="1995.0" font-size="15" font-family="Arial" fill="#07122f" text-anchor="start">provenance: ProvenanceRecord?</text>
  <rect x="496.4" y="1119.0" width="285.9" height="243.0" rx="8" fill="#eef4ff" stroke="#2563eb" stroke-width="1.2"/>
  <rect x="497.4" y="1120.0" width="283.9" height="4" rx="2" fill="#2563eb" opacity="0.85"/>
  <text x="511.4" y="1148.0" font-size="18" font-family="Arial" fill="#07122f" text-anchor="start" font-weight="bold">AcquisitionGeometry</text>
  <text x="511.4" y="1165.0" font-size="13" font-family="Arial" fill="#40506f" text-anchor="start">core.acquisition</text>
  <text x="511.4" y="1183.0" font-size="13" font-family="Arial" fill="#2563eb" text-anchor="start">«frozen dataclass»</text>
  <line x1="497.4" y1="1187.0" x2="781.3" y2="1187.0" stroke="#2563eb" stroke-width="1" opacity="0.35"/>
  <text x="511.4" y="1209.0" font-size="15" font-family="Arial" fill="#07122f" text-anchor="start">calibration_record: CalibrationRecord?</text>
  <text x="511.4" y="1229.0" font-size="15" font-family="Arial" fill="#07122f" text-anchor="start">specimen_frame: ReferenceFrame</text>
  <text x="511.4" y="1249.0" font-size="15" font-family="Arial" fill="#07122f" text-anchor="start">modality: str</text>
  <text x="511.4" y="1269.0" font-size="15" font-family="Arial" fill="#07122f" text-anchor="start">map_frame: ReferenceFrame?</text>
  <text x="511.4" y="1289.0" font-size="15" font-family="Arial" fill="#07122f" text-anchor="start">detector_frame: ReferenceFrame?</text>
  <text x="511.4" y="1309.0" font-size="15" font-family="Arial" fill="#07122f" text-anchor="start">laboratory_frame: ReferenceFrame?</text>
  <text x="511.4" y="1329.0" font-size="15" font-family="Arial" fill="#07122f" text-anchor="start">reciprocal_frame: ReferenceFrame?</text>
  <text x="511.4" y="1349.0" font-size="15" font-family="Arial" fill="#40506f" text-anchor="start">+ 7 more</text>
  <rect x="467.1" y="1462.0" width="253.4" height="203.0" rx="8" fill="#eef4ff" stroke="#2563eb" stroke-width="1.2"/>
  <rect x="468.1" y="1463.0" width="251.4" height="4" rx="2" fill="#2563eb" opacity="0.85"/>
  <text x="482.1" y="1491.0" font-size="18" font-family="Arial" fill="#07122f" text-anchor="start" font-weight="bold">CalibrationRecord</text>
  <text x="482.1" y="1508.0" font-size="13" font-family="Arial" fill="#40506f" text-anchor="start">core.acquisition</text>
  <text x="482.1" y="1526.0" font-size="13" font-family="Arial" fill="#2563eb" text-anchor="start">«frozen dataclass»</text>
  <line x1="468.1" y1="1530.0" x2="719.5" y2="1530.0" stroke="#2563eb" stroke-width="1" opacity="0.35"/>
  <text x="482.1" y="1552.0" font-size="15" font-family="Arial" fill="#07122f" text-anchor="start">source: str</text>
  <text x="482.1" y="1572.0" font-size="15" font-family="Arial" fill="#07122f" text-anchor="start">status: str</text>
  <text x="482.1" y="1592.0" font-size="15" font-family="Arial" fill="#07122f" text-anchor="start">residual_error: float?</text>
  <text x="482.1" y="1612.0" font-size="15" font-family="Arial" fill="#07122f" text-anchor="start">parameter_uncertainty: {str: float}</text>
  <text x="482.1" y="1632.0" font-size="15" font-family="Arial" fill="#07122f" text-anchor="start">notes: str[]</text>
  <text x="482.1" y="1652.0" font-size="15" font-family="Arial" fill="#07122f" text-anchor="start">provenance: ProvenanceRecord?</text>
  <rect x="584.7" y="1374.5" width="109.3" height="13" rx="3" fill="#ffffff" opacity="0.86"/>
  <text x="639.3" y="1386.0" font-size="13" font-family="Arial" fill="#40506f" text-anchor="middle">calibration_record</text>
  <rect x="778.1" y="1031.5" width="128.8" height="13" rx="3" fill="#ffffff" opacity="0.86"/>
  <text x="842.5" y="1043.0" font-size="13" font-family="Arial" fill="#40506f" text-anchor="middle">acquisition_geometry</text>
  <rect x="673.5" y="1049.5" width="109.3" height="13" rx="3" fill="#ffffff" opacity="0.86"/>
  <text x="728.1" y="1061.0" font-size="13" font-family="Arial" fill="#40506f" text-anchor="middle">calibration_record</text>
  <rect x="908.7" y="1031.5" width="96.3" height="13" rx="3" fill="#ffffff" opacity="0.86"/>
  <text x="956.9" y="1043.0" font-size="13" font-family="Arial" fill="#40506f" text-anchor="middle">phase_entries *</text>
  <rect x="1011.0" y="1374.5" width="41.4" height="13" rx="3" fill="#ffffff" opacity="0.86"/>
  <text x="1031.7" y="1386.0" font-size="13" font-family="Arial" fill="#40506f" text-anchor="middle">phase</text>
  <rect x="841.4" y="365.5" width="41.4" height="13" rx="3" fill="#ffffff" opacity="0.86"/>
  <text x="862.1" y="377.0" font-size="13" font-family="Arial" fill="#40506f" text-anchor="middle">phase</text>
  <rect x="681.5" y="365.5" width="125.2" height="13" rx="3" fill="#ffffff" opacity="0.86"/>
  <text x="744.1" y="377.0" font-size="13" font-family="Arial" fill="#40506f" text-anchor="middle">specimen_symmetry</text>
  <rect x="959.4" y="365.5" width="41.4" height="13" rx="3" fill="#ffffff" opacity="0.86"/>
  <text x="980.1" y="377.0" font-size="13" font-family="Arial" fill="#40506f" text-anchor="middle">phase</text>
  <rect x="1261.9" y="365.5" width="84.0" height="13" rx="3" fill="#ffffff" opacity="0.86"/>
  <text x="1303.9" y="377.0" font-size="13" font-family="Arial" fill="#40506f" text-anchor="middle">segmentation</text>
  <rect x="849.2" y="1717.5" width="62.3" height="13" rx="3" fill="#ffffff" opacity="0.86"/>
  <text x="880.4" y="1729.0" font-size="13" font-family="Arial" fill="#40506f" text-anchor="middle">symmetry</text>
  <rect x="114.1" y="365.5" width="21.9" height="13" rx="3" fill="#ffffff" opacity="0.86"/>
  <text x="125.0" y="377.0" font-size="13" font-family="Arial" fill="#40506f" text-anchor="middle">csl</text>
  <rect x="308.1" y="365.5" width="21.9" height="13" rx="3" fill="#ffffff" opacity="0.86"/>
  <text x="319.1" y="377.0" font-size="13" font-family="Arial" fill="#40506f" text-anchor="middle">csl</text>
  <rect x="823.1" y="1374.5" width="62.3" height="13" rx="3" fill="#ffffff" opacity="0.86"/>
  <text x="854.3" y="1386.0" font-size="13" font-family="Arial" fill="#40506f" text-anchor="middle">symmetry</text>
  <rect x="1474.5" y="365.5" width="84.0" height="13" rx="3" fill="#ffffff" opacity="0.86"/>
  <text x="1516.5" y="377.0" font-size="13" font-family="Arial" fill="#40506f" text-anchor="middle">segmentation</text>
  <rect x="1773.6" y="365.5" width="84.0" height="13" rx="3" fill="#ffffff" opacity="0.86"/>
  <text x="1815.6" y="377.0" font-size="13" font-family="Arial" fill="#40506f" text-anchor="middle">segmentation</text>
  <rect x="1026.5" y="688.5" width="76.1" height="13" rx="3" fill="#ffffff" opacity="0.86"/>
  <text x="1064.6" y="700.0" font-size="13" font-family="Arial" fill="#40506f" text-anchor="middle">crystal_map</text>
  <rect x="1216.9" y="688.5" width="50.1" height="13" rx="3" fill="#ffffff" opacity="0.86"/>
  <text x="1242.0" y="700.0" font-size="13" font-family="Arial" fill="#40506f" text-anchor="middle">grains *</text>
  <rect x="1068.9" y="365.5" width="76.1" height="13" rx="3" fill="#ffffff" opacity="0.86"/>
  <text x="1106.9" y="377.0" font-size="13" font-family="Arial" fill="#40506f" text-anchor="middle">crystal_map</text>
  <rect x="40.0" y="2042.0" width="469.4" height="161.0" rx="8" fill="#f7faff" stroke="#c8d8f2" stroke-width="1.0"/>
  <text x="56.0" y="2068.0" font-size="15" font-family="Arial" fill="#07122f" text-anchor="start" font-weight="bold">Notation</text>
  <line x1="58.0" y1="2090.0" x2="98.0" y2="2090.0" stroke="#07122f" stroke-width="1.6" marker-end="url(#cd-arrow)" marker-start="url(#cd-diamond)"/>
  <text x="116.0" y="2094.0" font-size="14" font-family="Arial" fill="#40506f" text-anchor="start">composition - a required field: the owner cannot exist without it</text>
  <line x1="58.0" y1="2111.0" x2="98.0" y2="2111.0" stroke="#40506f" stroke-width="1.6" stroke-dasharray="6 5" marker-end="url(#cd-arrow)"/>
  <text x="116.0" y="2115.0" font-size="14" font-family="Arial" fill="#40506f" text-anchor="start">association - an optional or defaulted field</text>
  <text x="58.0" y="2136.0" font-size="14" font-family="Arial" fill="#40506f" text-anchor="start">*  after a field name: the field holds a sequence</text>
  <text x="56.0" y="2163.0" font-size="13" font-family="Arial" fill="#40506f" text-anchor="start">ProvenanceRecord is omitted: 102 classes carry it, on every result object.</text>
  <text x="56.0" y="2181.0" font-size="13" font-family="Arial" fill="#40506f" text-anchor="start">Fields naming another card are listed first; the rest are summarized.</text>
</svg>
