<?xml version="1.0" encoding="utf-8" standalone="no"?>
<!DOCTYPE svg PUBLIC "-//W3C//DTD SVG 1.1//EN"
  "http://www.w3.org/Graphics/SVG/1.1/DTD/svg11.dtd">
<svg xmlns:xlink="http://www.w3.org/1999/xlink" width="346.878749pt" height="352.754489pt" viewBox="0 0 346.878749 352.754489" xmlns="http://www.w3.org/2000/svg" version="1.1">
 <metadata>
  <rdf:RDF xmlns:dc="http://purl.org/dc/elements/1.1/" xmlns:cc="http://creativecommons.org/ns#" xmlns:rdf="http://www.w3.org/1999/02/22-rdf-syntax-ns#">
   <cc:Work>
    <dc:type rdf:resource="http://purl.org/dc/dcmitype/StillImage"/>
    <dc:date>2026-03-27T13:03:41.932934</dc:date>
    <dc:format>image/svg+xml</dc:format>
    <dc:creator>
     <cc:Agent>
      <dc:title>Matplotlib v3.8.2, https://matplotlib.org/</dc:title>
     </cc:Agent>
    </dc:creator>
   </cc:Work>
  </rdf:RDF>
 </metadata>
 <defs>
  <style type="text/css">*{stroke-linejoin: round; stroke-linecap: butt}</style>
 </defs>
 <g id="figure_1">
  <g id="patch_1">
   <path d="M 0 352.754489 
L 346.878749 352.754489 
L 346.878749 0 
L 0 0 
z
" style="fill: #ffffff"/>
  </g>
  <g id="patch_2">
   <path d="M 16.442385 345.554489 
L 339.678749 345.554489 
L 339.678749 22.318125 
L 16.442385 22.318125 
z
" style="fill: #ffffff"/>
  </g>
  <g id="pane3d_1">
   <g id="patch_3">
    <path d="M 156.760267 196.247788 
L 322.381771 239.482273 
L 327.071373 96.581947 
L 155.950251 60.304958 
" style="fill: #f2f2f2; opacity: 0.5; stroke: #f2f2f2; stroke-linejoin: miter"/>
   </g>
  </g>
  <g id="pane3d_2">
   <g id="patch_4">
    <path d="M 156.760267 196.247788 
L 38.314567 262.251223 
L 33.337011 115.742038 
L 155.950251 60.304958 
" style="fill: #e6e6e6; opacity: 0.5; stroke: #e6e6e6; stroke-linejoin: miter"/>
   </g>
  </g>
  <g id="pane3d_3">
   <g id="patch_5">
    <path d="M 156.760267 196.247788 
L 38.314567 262.251223 
L 212.280762 314.027557 
L 322.381771 239.482273 
" style="fill: #ececec; opacity: 0.5; stroke: #ececec; stroke-linejoin: miter"/>
   </g>
  </g>
  <g id="grid3d_1">
   <g id="Line3DCollection_1">
    <path d="M 315.960591 243.829815 
L 149.816684 200.117075 
L 148.781863 63.545999 
" style="fill: none; stroke: #b0b0b0; stroke-width: 0.8"/>
    <path d="M 300.038936 254.609773 
L 132.61888 209.700489 
L 131.01683 71.578097 
" style="fill: none; stroke: #b0b0b0; stroke-width: 0.8"/>
    <path d="M 283.665257 265.69578 
L 114.961274 219.540125 
L 112.761341 79.831944 
" style="fill: none; stroke: #b0b0b0; stroke-width: 0.8"/>
    <path d="M 266.820028 277.101056 
L 96.825177 229.646399 
L 93.994803 88.316852 
" style="fill: none; stroke: #b0b0b0; stroke-width: 0.8"/>
    <path d="M 249.482579 288.839595 
L 78.19087 240.030299 
L 74.69545 97.042662 
" style="fill: none; stroke: #b0b0b0; stroke-width: 0.8"/>
    <path d="M 231.631018 300.926221 
L 59.037541 250.703422 
L 54.840265 106.01978 
" style="fill: none; stroke: #b0b0b0; stroke-width: 0.8"/>
   </g>
  </g>
  <g id="grid3d_2">
   <g id="Line3DCollection_2">
    <path d="M 166.243775 62.487144 
L 166.740681 198.853115 
L 48.743977 265.355255 
" style="fill: none; stroke: #b0b0b0; stroke-width: 0.8"/>
    <path d="M 191.595103 67.861523 
L 191.311186 205.267095 
L 74.449162 273.005708 
" style="fill: none; stroke: #b0b0b0; stroke-width: 0.8"/>
    <path d="M 217.413458 73.33491 
L 216.320188 211.795543 
L 100.655982 280.80546 
" style="fill: none; stroke: #b0b0b0; stroke-width: 0.8"/>
    <path d="M 243.711865 78.910067 
L 241.779532 218.44155 
L 127.379267 288.758923 
" style="fill: none; stroke: #b0b0b0; stroke-width: 0.8"/>
    <path d="M 270.503839 84.589857 
L 267.701491 225.208319 
L 154.634435 296.870686 
" style="fill: none; stroke: #b0b0b0; stroke-width: 0.8"/>
    <path d="M 297.803405 90.377255 
L 294.09879 232.099173 
L 182.437525 305.145524 
" style="fill: none; stroke: #b0b0b0; stroke-width: 0.8"/>
   </g>
  </g>
  <g id="grid3d_3">
   <g id="Line3DCollection_3">
    <path d="M 38.007737 253.219986 
L 156.7102 187.845163 
L 322.671122 230.665254 
" style="fill: none; stroke: #b0b0b0; stroke-width: 0.8"/>
    <path d="M 37.256192 231.099052 
L 156.587642 167.276583 
L 323.379702 209.073599 
" style="fill: none; stroke: #b0b0b0; stroke-width: 0.8"/>
    <path d="M 36.496785 208.746685 
L 156.463911 146.511031 
L 324.095478 187.262651 
" style="fill: none; stroke: #b0b0b0; stroke-width: 0.8"/>
    <path d="M 35.72939 186.159235 
L 156.338988 125.545662 
L 324.818561 165.229052 
" style="fill: none; stroke: #b0b0b0; stroke-width: 0.8"/>
    <path d="M 34.953883 163.332974 
L 156.212858 104.377579 
L 325.549063 142.969375 
" style="fill: none; stroke: #b0b0b0; stroke-width: 0.8"/>
    <path d="M 34.170132 140.264093 
L 156.085502 83.003829 
L 326.2871 120.480124 
" style="fill: none; stroke: #b0b0b0; stroke-width: 0.8"/>
   </g>
  </g>
  <g id="axis3d_1">
   <g id="line2d_1">
    <path d="M 322.381771 239.482273 
L 212.280762 314.027557 
" style="fill: none; stroke: #000000; stroke-width: 0.8; stroke-linecap: square"/>
   </g>
   <g id="xtick_1">
    <g id="line2d_2">
     <path d="M 314.552141 243.45925 
L 318.781562 244.572017 
" style="fill: none; stroke: #000000; stroke-width: 0.8; stroke-linecap: square"/>
    </g>
    <g id="text_1">
     <!-- 0 -->
     <g transform="translate(324.536104 264.106625) scale(0.1 -0.1)">
      <defs>
       <path id="DejaVuSans-30" d="M 2034 4250 
Q 1547 4250 1301 3770 
Q 1056 3291 1056 2328 
Q 1056 1369 1301 889 
Q 1547 409 2034 409 
Q 2525 409 2770 889 
Q 3016 1369 3016 2328 
Q 3016 3291 2770 3770 
Q 2525 4250 2034 4250 
z
M 2034 4750 
Q 2819 4750 3233 4129 
Q 3647 3509 3647 2328 
Q 3647 1150 3233 529 
Q 2819 -91 2034 -91 
Q 1250 -91 836 529 
Q 422 1150 422 2328 
Q 422 3509 836 4129 
Q 1250 4750 2034 4750 
z
" transform="scale(0.015625)"/>
      </defs>
      <use xlink:href="#DejaVuSans-30"/>
     </g>
    </g>
   </g>
   <g id="xtick_2">
    <g id="line2d_3">
     <path d="M 298.61855 254.228764 
L 302.883872 255.372908 
" style="fill: none; stroke: #000000; stroke-width: 0.8; stroke-linecap: square"/>
    </g>
    <g id="text_2">
     <!-- 2 -->
     <g transform="translate(308.748861 275.084998) scale(0.1 -0.1)">
      <defs>
       <path id="DejaVuSans-32" d="M 1228 531 
L 3431 531 
L 3431 0 
L 469 0 
L 469 531 
Q 828 903 1448 1529 
Q 2069 2156 2228 2338 
Q 2531 2678 2651 2914 
Q 2772 3150 2772 3378 
Q 2772 3750 2511 3984 
Q 2250 4219 1831 4219 
Q 1534 4219 1204 4116 
Q 875 4013 500 3803 
L 500 4441 
Q 881 4594 1212 4672 
Q 1544 4750 1819 4750 
Q 2544 4750 2975 4387 
Q 3406 4025 3406 3419 
Q 3406 3131 3298 2873 
Q 3191 2616 2906 2266 
Q 2828 2175 2409 1742 
Q 1991 1309 1228 531 
z
" transform="scale(0.015625)"/>
      </defs>
      <use xlink:href="#DejaVuSans-32"/>
     </g>
    </g>
   </g>
   <g id="xtick_3">
    <g id="line2d_4">
     <path d="M 282.23282 265.30388 
L 286.534391 266.480745 
" style="fill: none; stroke: #000000; stroke-width: 0.8; stroke-linecap: square"/>
    </g>
    <g id="text_3">
     <!-- 4 -->
     <g transform="translate(292.51254 286.375657) scale(0.1 -0.1)">
      <defs>
       <path id="DejaVuSans-34" d="M 2419 4116 
L 825 1625 
L 2419 1625 
L 2419 4116 
z
M 2253 4666 
L 3047 4666 
L 3047 1625 
L 3713 1625 
L 3713 1100 
L 3047 1100 
L 3047 0 
L 2419 0 
L 2419 1100 
L 313 1100 
L 313 1709 
L 2253 4666 
z
" transform="scale(0.015625)"/>
      </defs>
      <use xlink:href="#DejaVuSans-34"/>
     </g>
    </g>
   </g>
   <g id="xtick_4">
    <g id="line2d_5">
     <path d="M 265.375429 276.697791 
L 269.713582 277.908802 
" style="fill: none; stroke: #000000; stroke-width: 0.8; stroke-linecap: square"/>
    </g>
    <g id="text_4">
     <!-- 6 -->
     <g transform="translate(275.807704 297.99212) scale(0.1 -0.1)">
      <defs>
       <path id="DejaVuSans-36" d="M 2113 2584 
Q 1688 2584 1439 2293 
Q 1191 2003 1191 1497 
Q 1191 994 1439 701 
Q 1688 409 2113 409 
Q 2538 409 2786 701 
Q 3034 994 3034 1497 
Q 3034 2003 2786 2293 
Q 2538 2584 2113 2584 
z
M 3366 4563 
L 3366 3988 
Q 3128 4100 2886 4159 
Q 2644 4219 2406 4219 
Q 1781 4219 1451 3797 
Q 1122 3375 1075 2522 
Q 1259 2794 1537 2939 
Q 1816 3084 2150 3084 
Q 2853 3084 3261 2657 
Q 3669 2231 3669 1497 
Q 3669 778 3244 343 
Q 2819 -91 2113 -91 
Q 1303 -91 875 529 
Q 447 1150 447 2328 
Q 447 3434 972 4092 
Q 1497 4750 2381 4750 
Q 2619 4750 2861 4703 
Q 3103 4656 3366 4563 
z
" transform="scale(0.015625)"/>
      </defs>
      <use xlink:href="#DejaVuSans-36"/>
     </g>
    </g>
   </g>
   <g id="xtick_5">
    <g id="line2d_6">
     <path d="M 248.025714 288.424464 
L 252.400767 289.671128 
" style="fill: none; stroke: #000000; stroke-width: 0.8; stroke-linecap: square"/>
    </g>
    <g id="text_5">
     <!-- 8 -->
     <g transform="translate(258.613777 309.948694) scale(0.1 -0.1)">
      <defs>
       <path id="DejaVuSans-38" d="M 2034 2216 
Q 1584 2216 1326 1975 
Q 1069 1734 1069 1313 
Q 1069 891 1326 650 
Q 1584 409 2034 409 
Q 2484 409 2743 651 
Q 3003 894 3003 1313 
Q 3003 1734 2745 1975 
Q 2488 2216 2034 2216 
z
M 1403 2484 
Q 997 2584 770 2862 
Q 544 3141 544 3541 
Q 544 4100 942 4425 
Q 1341 4750 2034 4750 
Q 2731 4750 3128 4425 
Q 3525 4100 3525 3541 
Q 3525 3141 3298 2862 
Q 3072 2584 2669 2484 
Q 3125 2378 3379 2068 
Q 3634 1759 3634 1313 
Q 3634 634 3220 271 
Q 2806 -91 2034 -91 
Q 1263 -91 848 271 
Q 434 634 434 1313 
Q 434 1759 690 2068 
Q 947 2378 1403 2484 
z
M 1172 3481 
Q 1172 3119 1398 2916 
Q 1625 2713 2034 2713 
Q 2441 2713 2670 2916 
Q 2900 3119 2900 3481 
Q 2900 3844 2670 4047 
Q 2441 4250 2034 4250 
Q 1625 4250 1398 4047 
Q 1172 3844 1172 3481 
z
" transform="scale(0.015625)"/>
      </defs>
      <use xlink:href="#DejaVuSans-38"/>
     </g>
    </g>
   </g>
   <g id="xtick_6">
    <g id="line2d_7">
     <path d="M 230.161789 300.498692 
L 234.574037 301.782608 
" style="fill: none; stroke: #000000; stroke-width: 0.8; stroke-linecap: square"/>
    </g>
    <g id="text_6">
     <!-- 10 -->
     <g transform="translate(237.727709 322.26054) scale(0.1 -0.1)">
      <defs>
       <path id="DejaVuSans-31" d="M 794 531 
L 1825 531 
L 1825 4091 
L 703 3866 
L 703 4441 
L 1819 4666 
L 2450 4666 
L 2450 531 
L 3481 531 
L 3481 0 
L 794 0 
L 794 531 
z
" transform="scale(0.015625)"/>
      </defs>
      <use xlink:href="#DejaVuSans-31"/>
      <use xlink:href="#DejaVuSans-30" x="63.623047"/>
     </g>
    </g>
   </g>
   <g id="text_7">
    <!-- a -->
    <g transform="translate(293.281879 306.664351) scale(0.1 -0.1)">
     <defs>
      <path id="DejaVuSans-61" d="M 2194 1759 
Q 1497 1759 1228 1600 
Q 959 1441 959 1056 
Q 959 750 1161 570 
Q 1363 391 1709 391 
Q 2188 391 2477 730 
Q 2766 1069 2766 1631 
L 2766 1759 
L 2194 1759 
z
M 3341 1997 
L 3341 0 
L 2766 0 
L 2766 531 
Q 2569 213 2275 61 
Q 1981 -91 1556 -91 
Q 1019 -91 701 211 
Q 384 513 384 1019 
Q 384 1609 779 1909 
Q 1175 2209 1959 2209 
L 2766 2209 
L 2766 2266 
Q 2766 2663 2505 2880 
Q 2244 3097 1772 3097 
Q 1472 3097 1187 3025 
Q 903 2953 641 2809 
L 641 3341 
Q 956 3463 1253 3523 
Q 1550 3584 1831 3584 
Q 2591 3584 2966 3190 
Q 3341 2797 3341 1997 
z
" transform="scale(0.015625)"/>
     </defs>
     <use xlink:href="#DejaVuSans-61"/>
    </g>
   </g>
  </g>
  <g id="axis3d_2">
   <g id="line2d_8">
    <path d="M 38.314567 262.251223 
L 212.280762 314.027557 
" style="fill: none; stroke: #000000; stroke-width: 0.8; stroke-linecap: square"/>
   </g>
   <g id="xtick_7">
    <g id="line2d_9">
     <path d="M 49.773759 264.774878 
L 46.679876 266.518569 
" style="fill: none; stroke: #000000; stroke-width: 0.8; stroke-linecap: square"/>
    </g>
    <g id="text_8">
     <!-- 0 -->
     <g transform="translate(37.035528 287.676245) scale(0.1 -0.1)">
      <use xlink:href="#DejaVuSans-30"/>
     </g>
    </g>
   </g>
   <g id="xtick_8">
    <g id="line2d_10">
     <path d="M 75.469861 272.414064 
L 72.403221 274.19163 
" style="fill: none; stroke: #000000; stroke-width: 0.8; stroke-linecap: square"/>
    </g>
    <g id="text_9">
     <!-- 2 -->
     <g transform="translate(62.761548 295.500362) scale(0.1 -0.1)">
      <use xlink:href="#DejaVuSans-32"/>
     </g>
    </g>
   </g>
   <g id="xtick_9">
    <g id="line2d_11">
     <path d="M 101.667048 280.202218 
L 98.629308 282.014655 
" style="fill: none; stroke: #000000; stroke-width: 0.8; stroke-linecap: square"/>
    </g>
    <g id="text_10">
     <!-- 4 -->
     <g transform="translate(88.991652 303.477787) scale(0.1 -0.1)">
      <use xlink:href="#DejaVuSans-34"/>
     </g>
    </g>
   </g>
   <g id="xtick_10">
    <g id="line2d_12">
     <path d="M 128.380119 288.143738 
L 125.373021 289.992084 
" style="fill: none; stroke: #000000; stroke-width: 0.8; stroke-linecap: square"/>
    </g>
    <g id="text_11">
     <!-- 6 -->
     <g transform="translate(115.740804 311.613072) scale(0.1 -0.1)">
      <use xlink:href="#DejaVuSans-36"/>
     </g>
    </g>
   </g>
   <g id="xtick_11">
    <g id="line2d_13">
     <path d="M 155.624464 296.243202 
L 152.649837 298.128532 
" style="fill: none; stroke: #000000; stroke-width: 0.8; stroke-linecap: square"/>
    </g>
    <g id="text_12">
     <!-- 8 -->
     <g transform="translate(143.024562 319.910948) scale(0.1 -0.1)">
      <use xlink:href="#DejaVuSans-38"/>
     </g>
    </g>
   </g>
   <g id="xtick_12">
    <g id="line2d_14">
     <path d="M 183.416093 304.505366 
L 180.475857 306.428804 
" style="fill: none; stroke: #000000; stroke-width: 0.8; stroke-linecap: square"/>
    </g>
    <g id="text_13">
     <!-- 10 -->
     <g transform="translate(167.677867 328.376339) scale(0.1 -0.1)">
      <use xlink:href="#DejaVuSans-31"/>
      <use xlink:href="#DejaVuSans-30" x="63.623047"/>
     </g>
    </g>
   </g>
   <g id="text_14">
    <!-- b -->
    <g transform="translate(100.873959 323.328835) scale(0.1 -0.1)">
     <defs>
      <path id="DejaVuSans-62" d="M 3116 1747 
Q 3116 2381 2855 2742 
Q 2594 3103 2138 3103 
Q 1681 3103 1420 2742 
Q 1159 2381 1159 1747 
Q 1159 1113 1420 752 
Q 1681 391 2138 391 
Q 2594 391 2855 752 
Q 3116 1113 3116 1747 
z
M 1159 2969 
Q 1341 3281 1617 3432 
Q 1894 3584 2278 3584 
Q 2916 3584 3314 3078 
Q 3713 2572 3713 1747 
Q 3713 922 3314 415 
Q 2916 -91 2278 -91 
Q 1894 -91 1617 61 
Q 1341 213 1159 525 
L 1159 0 
L 581 0 
L 581 4863 
L 1159 4863 
L 1159 2969 
z
" transform="scale(0.015625)"/>
     </defs>
     <use xlink:href="#DejaVuSans-62"/>
    </g>
   </g>
  </g>
  <g id="axis3d_3">
   <g id="line2d_15">
    <path d="M 38.314567 262.251223 
L 33.337011 115.742038 
" style="fill: none; stroke: #000000; stroke-width: 0.8; stroke-linecap: square"/>
   </g>
   <g id="xtick_13">
    <g id="line2d_16">
     <path d="M 39.043522 252.649532 
L 35.931609 254.363403 
" style="fill: none; stroke: #000000; stroke-width: 0.8; stroke-linecap: square"/>
    </g>
    <g id="text_15">
     <!-- 0 -->
     <g transform="translate(14.761188 262.408257) scale(0.1 -0.1)">
      <use xlink:href="#DejaVuSans-30"/>
     </g>
    </g>
   </g>
   <g id="xtick_14">
    <g id="line2d_17">
     <path d="M 38.297916 230.541903 
L 35.168136 232.215814 
" style="fill: none; stroke: #000000; stroke-width: 0.8; stroke-linecap: square"/>
    </g>
    <g id="text_16">
     <!-- 2 -->
     <g transform="translate(13.903472 240.250265) scale(0.1 -0.1)">
      <use xlink:href="#DejaVuSans-32"/>
     </g>
    </g>
   </g>
   <g id="xtick_15">
    <g id="line2d_18">
     <path d="M 37.544515 208.203151 
L 34.396664 209.83617 
" style="fill: none; stroke: #000000; stroke-width: 0.8; stroke-linecap: square"/>
    </g>
    <g id="text_17">
     <!-- 4 -->
     <g transform="translate(13.036764 217.859976) scale(0.1 -0.1)">
      <use xlink:href="#DejaVuSans-34"/>
     </g>
    </g>
   </g>
   <g id="xtick_16">
    <g id="line2d_19">
     <path d="M 36.783197 185.629634 
L 33.617066 187.220805 
" style="fill: none; stroke: #000000; stroke-width: 0.8; stroke-linecap: square"/>
    </g>
    <g id="text_18">
     <!-- 6 -->
     <g transform="translate(12.160921 195.233716) scale(0.1 -0.1)">
      <use xlink:href="#DejaVuSans-36"/>
     </g>
    </g>
   </g>
   <g id="xtick_17">
    <g id="line2d_20">
     <path d="M 36.013836 162.817631 
L 32.829214 164.365975 
" style="fill: none; stroke: #000000; stroke-width: 0.8; stroke-linecap: square"/>
    </g>
    <g id="text_19">
     <!-- 8 -->
     <g transform="translate(11.275799 172.367737) scale(0.1 -0.1)">
      <use xlink:href="#DejaVuSans-38"/>
     </g>
    </g>
   </g>
   <g id="xtick_18">
    <g id="line2d_21">
     <path d="M 35.236303 139.763342 
L 32.032975 141.267856 
" style="fill: none; stroke: #000000; stroke-width: 0.8; stroke-linecap: square"/>
    </g>
    <g id="text_20">
     <!-- 10 -->
     <g transform="translate(7.2 149.258207) scale(0.1 -0.1)">
      <use xlink:href="#DejaVuSans-31"/>
      <use xlink:href="#DejaVuSans-30" x="63.623047"/>
     </g>
    </g>
   </g>
   <g id="text_21">
    <!-- c -->
    <g transform="translate(-11.26646 196.231565) scale(0.1 -0.1)">
     <defs>
      <path id="DejaVuSans-63" d="M 3122 3366 
L 3122 2828 
Q 2878 2963 2633 3030 
Q 2388 3097 2138 3097 
Q 1578 3097 1268 2742 
Q 959 2388 959 1747 
Q 959 1106 1268 751 
Q 1578 397 2138 397 
Q 2388 397 2633 464 
Q 2878 531 3122 666 
L 3122 134 
Q 2881 22 2623 -34 
Q 2366 -91 2075 -91 
Q 1284 -91 818 406 
Q 353 903 353 1747 
Q 353 2603 823 3093 
Q 1294 3584 2113 3584 
Q 2378 3584 2631 3529 
Q 2884 3475 3122 3366 
z
" transform="scale(0.015625)"/>
     </defs>
     <use xlink:href="#DejaVuSans-63"/>
    </g>
   </g>
  </g>
  <g id="axes_1">
   <g id="line2d_22">
    <path d="M 159.781077 194.284838 
L 56.627106 251.744717 
" clip-path="url(#pd113a74151)" style="fill: none; stroke: #334155; stroke-width: 1.2; stroke-linecap: square"/>
   </g>
   <g id="line2d_23">
    <path d="M 159.781077 194.284838 
L 305.047824 232.0616 
" clip-path="url(#pd113a74151)" style="fill: none; stroke: #334155; stroke-width: 1.2; stroke-linecap: square"/>
   </g>
   <g id="line2d_24">
    <path d="M 159.781077 194.284838 
L 159.152831 74.729943 
" clip-path="url(#pd113a74151)" style="fill: none; stroke: #334155; stroke-width: 1.2; stroke-linecap: square"/>
   </g>
   <g id="line2d_25">
    <path d="M 56.627106 251.744717 
L 208.271853 295.97072 
" clip-path="url(#pd113a74151)" style="fill: none; stroke: #334155; stroke-width: 1.2; stroke-linecap: square"/>
   </g>
   <g id="line2d_26">
    <path d="M 56.627106 251.744717 
L 52.850746 124.09588 
" clip-path="url(#pd113a74151)" style="fill: none; stroke: #334155; stroke-width: 1.2; stroke-linecap: square"/>
   </g>
   <g id="line2d_27">
    <path d="M 305.047824 232.0616 
L 208.271853 295.97072 
" clip-path="url(#pd113a74151)" style="fill: none; stroke: #334155; stroke-width: 1.2; stroke-linecap: square"/>
   </g>
   <g id="line2d_28">
    <path d="M 305.047824 232.0616 
L 308.632822 107.16075 
" clip-path="url(#pd113a74151)" style="fill: none; stroke: #334155; stroke-width: 1.2; stroke-linecap: square"/>
   </g>
   <g id="line2d_29">
    <path d="M 159.152831 74.729943 
L 52.850746 124.09588 
" clip-path="url(#pd113a74151)" style="fill: none; stroke: #334155; stroke-width: 1.2; stroke-linecap: square"/>
   </g>
   <g id="line2d_30">
    <path d="M 159.152831 74.729943 
L 308.632822 107.16075 
" clip-path="url(#pd113a74151)" style="fill: none; stroke: #334155; stroke-width: 1.2; stroke-linecap: square"/>
   </g>
   <g id="line2d_31">
    <path d="M 208.271853 295.97072 
L 209.09312 162.241409 
" clip-path="url(#pd113a74151)" style="fill: none; stroke: #334155; stroke-width: 1.2; stroke-linecap: square"/>
   </g>
   <g id="line2d_32">
    <path d="M 52.850746 124.09588 
L 209.09312 162.241409 
" clip-path="url(#pd113a74151)" style="fill: none; stroke: #334155; stroke-width: 1.2; stroke-linecap: square"/>
   </g>
   <g id="line2d_33">
    <path d="M 308.632822 107.16075 
L 209.09312 162.241409 
" clip-path="url(#pd113a74151)" style="fill: none; stroke: #334155; stroke-width: 1.2; stroke-linecap: square"/>
   </g>
   <g id="Poly3DCollection_1">
    <defs>
     <path id="m36ea1746ec" d="M 110.181489 -130.841181 
L 230.559315 -140.063699 
L 159.471251 -217.429323 
z
" style="stroke: #0f766e; stroke-width: 0.8"/>
    </defs>
    <g clip-path="url(#pd113a74151)">
     <use xlink:href="#m36ea1746ec" x="0" y="352.754489" style="fill: #0f766e; fill-opacity: 0.35; stroke: #0f766e; stroke-width: 0.8"/>
    </g>
   </g>
   <g id="text_22">
    <!-- (1 1 1) -->
    <g style="fill: #0f766e" transform="translate(166.941408 189.631988) scale(0.1 -0.1)">
     <defs>
      <path id="DejaVuSans-28" d="M 1984 4856 
Q 1566 4138 1362 3434 
Q 1159 2731 1159 2009 
Q 1159 1288 1364 580 
Q 1569 -128 1984 -844 
L 1484 -844 
Q 1016 -109 783 600 
Q 550 1309 550 2009 
Q 550 2706 781 3412 
Q 1013 4119 1484 4856 
L 1984 4856 
z
" transform="scale(0.015625)"/>
      <path id="DejaVuSans-20" transform="scale(0.015625)"/>
      <path id="DejaVuSans-29" d="M 513 4856 
L 1013 4856 
Q 1481 4119 1714 3412 
Q 1947 2706 1947 2009 
Q 1947 1309 1714 600 
Q 1481 -109 1013 -844 
L 513 -844 
Q 928 -128 1133 580 
Q 1338 1288 1338 2009 
Q 1338 2731 1133 3434 
Q 928 4138 513 4856 
z
" transform="scale(0.015625)"/>
     </defs>
     <use xlink:href="#DejaVuSans-28"/>
     <use xlink:href="#DejaVuSans-31" x="39.013672"/>
     <use xlink:href="#DejaVuSans-20" x="102.636719"/>
     <use xlink:href="#DejaVuSans-31" x="134.423828"/>
     <use xlink:href="#DejaVuSans-20" x="198.046875"/>
     <use xlink:href="#DejaVuSans-31" x="229.833984"/>
     <use xlink:href="#DejaVuSans-29" x="293.457031"/>
    </g>
   </g>
   <g id="text_23">
    <!-- NaCl Crystal Structure -->
    <g transform="translate(111.288067 16.318125) scale(0.12 -0.12)">
     <defs>
      <path id="DejaVuSans-4e" d="M 628 4666 
L 1478 4666 
L 3547 763 
L 3547 4666 
L 4159 4666 
L 4159 0 
L 3309 0 
L 1241 3903 
L 1241 0 
L 628 0 
L 628 4666 
z
" transform="scale(0.015625)"/>
      <path id="DejaVuSans-43" d="M 4122 4306 
L 4122 3641 
Q 3803 3938 3442 4084 
Q 3081 4231 2675 4231 
Q 1875 4231 1450 3742 
Q 1025 3253 1025 2328 
Q 1025 1406 1450 917 
Q 1875 428 2675 428 
Q 3081 428 3442 575 
Q 3803 722 4122 1019 
L 4122 359 
Q 3791 134 3420 21 
Q 3050 -91 2638 -91 
Q 1578 -91 968 557 
Q 359 1206 359 2328 
Q 359 3453 968 4101 
Q 1578 4750 2638 4750 
Q 3056 4750 3426 4639 
Q 3797 4528 4122 4306 
z
" transform="scale(0.015625)"/>
      <path id="DejaVuSans-6c" d="M 603 4863 
L 1178 4863 
L 1178 0 
L 603 0 
L 603 4863 
z
" transform="scale(0.015625)"/>
      <path id="DejaVuSans-72" d="M 2631 2963 
Q 2534 3019 2420 3045 
Q 2306 3072 2169 3072 
Q 1681 3072 1420 2755 
Q 1159 2438 1159 1844 
L 1159 0 
L 581 0 
L 581 3500 
L 1159 3500 
L 1159 2956 
Q 1341 3275 1631 3429 
Q 1922 3584 2338 3584 
Q 2397 3584 2469 3576 
Q 2541 3569 2628 3553 
L 2631 2963 
z
" transform="scale(0.015625)"/>
      <path id="DejaVuSans-79" d="M 2059 -325 
Q 1816 -950 1584 -1140 
Q 1353 -1331 966 -1331 
L 506 -1331 
L 506 -850 
L 844 -850 
Q 1081 -850 1212 -737 
Q 1344 -625 1503 -206 
L 1606 56 
L 191 3500 
L 800 3500 
L 1894 763 
L 2988 3500 
L 3597 3500 
L 2059 -325 
z
" transform="scale(0.015625)"/>
      <path id="DejaVuSans-73" d="M 2834 3397 
L 2834 2853 
Q 2591 2978 2328 3040 
Q 2066 3103 1784 3103 
Q 1356 3103 1142 2972 
Q 928 2841 928 2578 
Q 928 2378 1081 2264 
Q 1234 2150 1697 2047 
L 1894 2003 
Q 2506 1872 2764 1633 
Q 3022 1394 3022 966 
Q 3022 478 2636 193 
Q 2250 -91 1575 -91 
Q 1294 -91 989 -36 
Q 684 19 347 128 
L 347 722 
Q 666 556 975 473 
Q 1284 391 1588 391 
Q 1994 391 2212 530 
Q 2431 669 2431 922 
Q 2431 1156 2273 1281 
Q 2116 1406 1581 1522 
L 1381 1569 
Q 847 1681 609 1914 
Q 372 2147 372 2553 
Q 372 3047 722 3315 
Q 1072 3584 1716 3584 
Q 2034 3584 2315 3537 
Q 2597 3491 2834 3397 
z
" transform="scale(0.015625)"/>
      <path id="DejaVuSans-74" d="M 1172 4494 
L 1172 3500 
L 2356 3500 
L 2356 3053 
L 1172 3053 
L 1172 1153 
Q 1172 725 1289 603 
Q 1406 481 1766 481 
L 2356 481 
L 2356 0 
L 1766 0 
Q 1100 0 847 248 
Q 594 497 594 1153 
L 594 3053 
L 172 3053 
L 172 3500 
L 594 3500 
L 594 4494 
L 1172 4494 
z
" transform="scale(0.015625)"/>
      <path id="DejaVuSans-53" d="M 3425 4513 
L 3425 3897 
Q 3066 4069 2747 4153 
Q 2428 4238 2131 4238 
Q 1616 4238 1336 4038 
Q 1056 3838 1056 3469 
Q 1056 3159 1242 3001 
Q 1428 2844 1947 2747 
L 2328 2669 
Q 3034 2534 3370 2195 
Q 3706 1856 3706 1288 
Q 3706 609 3251 259 
Q 2797 -91 1919 -91 
Q 1588 -91 1214 -16 
Q 841 59 441 206 
L 441 856 
Q 825 641 1194 531 
Q 1563 422 1919 422 
Q 2459 422 2753 634 
Q 3047 847 3047 1241 
Q 3047 1584 2836 1778 
Q 2625 1972 2144 2069 
L 1759 2144 
Q 1053 2284 737 2584 
Q 422 2884 422 3419 
Q 422 4038 858 4394 
Q 1294 4750 2059 4750 
Q 2388 4750 2728 4690 
Q 3069 4631 3425 4513 
z
" transform="scale(0.015625)"/>
      <path id="DejaVuSans-75" d="M 544 1381 
L 544 3500 
L 1119 3500 
L 1119 1403 
Q 1119 906 1312 657 
Q 1506 409 1894 409 
Q 2359 409 2629 706 
Q 2900 1003 2900 1516 
L 2900 3500 
L 3475 3500 
L 3475 0 
L 2900 0 
L 2900 538 
Q 2691 219 2414 64 
Q 2138 -91 1772 -91 
Q 1169 -91 856 284 
Q 544 659 544 1381 
z
M 1991 3584 
L 1991 3584 
z
" transform="scale(0.015625)"/>
      <path id="DejaVuSans-65" d="M 3597 1894 
L 3597 1613 
L 953 1613 
Q 991 1019 1311 708 
Q 1631 397 2203 397 
Q 2534 397 2845 478 
Q 3156 559 3463 722 
L 3463 178 
Q 3153 47 2828 -22 
Q 2503 -91 2169 -91 
Q 1331 -91 842 396 
Q 353 884 353 1716 
Q 353 2575 817 3079 
Q 1281 3584 2069 3584 
Q 2775 3584 3186 3129 
Q 3597 2675 3597 1894 
z
M 3022 2063 
Q 3016 2534 2758 2815 
Q 2500 3097 2075 3097 
Q 1594 3097 1305 2825 
Q 1016 2553 972 2059 
L 3022 2063 
z
" transform="scale(0.015625)"/>
     </defs>
     <use xlink:href="#DejaVuSans-4e"/>
     <use xlink:href="#DejaVuSans-61" x="74.804688"/>
     <use xlink:href="#DejaVuSans-43" x="136.083984"/>
     <use xlink:href="#DejaVuSans-6c" x="205.908203"/>
     <use xlink:href="#DejaVuSans-20" x="233.691406"/>
     <use xlink:href="#DejaVuSans-43" x="265.478516"/>
     <use xlink:href="#DejaVuSans-72" x="335.302734"/>
     <use xlink:href="#DejaVuSans-79" x="376.416016"/>
     <use xlink:href="#DejaVuSans-73" x="435.595703"/>
     <use xlink:href="#DejaVuSans-74" x="487.695312"/>
     <use xlink:href="#DejaVuSans-61" x="526.904297"/>
     <use xlink:href="#DejaVuSans-6c" x="588.183594"/>
     <use xlink:href="#DejaVuSans-20" x="615.966797"/>
     <use xlink:href="#DejaVuSans-53" x="647.753906"/>
     <use xlink:href="#DejaVuSans-74" x="711.230469"/>
     <use xlink:href="#DejaVuSans-72" x="750.439453"/>
     <use xlink:href="#DejaVuSans-75" x="791.552734"/>
     <use xlink:href="#DejaVuSans-63" x="854.931641"/>
     <use xlink:href="#DejaVuSans-74" x="909.912109"/>
     <use xlink:href="#DejaVuSans-75" x="949.121094"/>
     <use xlink:href="#DejaVuSans-72" x="1012.5"/>
     <use xlink:href="#DejaVuSans-65" x="1051.363281"/>
    </g>
   </g>
   <g id="Path3DCollection_1">
    <path d="M 159.781077 304.972338 
C 189.135745 304.972338 217.292074 293.309605 238.048959 272.55272 
C 258.805844 251.795835 270.468577 223.639506 270.468577 194.284838 
C 270.468577 164.93017 258.805844 136.773841 238.048959 116.016956 
C 217.292074 95.260071 189.135745 83.597338 159.781077 83.597338 
C 130.426409 83.597338 102.27008 95.260071 81.513195 116.016956 
C 60.75631 136.773841 49.093577 164.93017 49.093577 194.284838 
C 49.093577 223.639506 60.75631 251.795835 81.513195 272.55272 
C 102.27008 293.309605 130.426409 304.972338 159.781077 304.972338 
z
" clip-path="url(#pd113a74151)" style="fill: #64748b; fill-opacity: 0.95; stroke: #f8fafc; stroke-opacity: 0.95; stroke-width: 0.35"/>
    <path d="M 159.471251 246.012666 
C 188.825919 246.012666 216.982248 234.349933 237.739133 213.593048 
C 258.496018 192.836163 270.158751 164.679834 270.158751 135.325166 
C 270.158751 105.970498 258.496018 77.814169 237.739133 57.057284 
C 216.982248 36.300399 188.825919 24.637666 159.471251 24.637666 
C 130.116583 24.637666 101.960254 36.300399 81.203369 57.057284 
C 60.446484 77.814169 48.783751 105.970498 48.783751 135.325166 
C 48.783751 164.679834 60.446484 192.836163 81.203369 213.593048 
C 101.960254 234.349933 130.116583 246.012666 159.471251 246.012666 
z
" clip-path="url(#pd113a74151)" style="fill: #64748b; fill-opacity: 0.95; stroke: #f8fafc; stroke-opacity: 0.95; stroke-width: 0.35"/>
    <path d="M 230.559315 323.378289 
C 259.913983 323.378289 288.070312 311.715556 308.827197 290.958671 
C 329.584082 270.201786 341.246815 242.045457 341.246815 212.690789 
C 341.246815 183.336121 329.584082 155.179792 308.827197 134.422907 
C 288.070312 113.666022 259.913983 102.003289 230.559315 102.003289 
C 201.204647 102.003289 173.048318 113.666022 152.291433 134.422907 
C 131.534548 155.179792 119.871815 183.336121 119.871815 212.690789 
C 119.871815 242.045457 131.534548 270.201786 152.291433 290.958671 
C 173.048318 311.715556 201.204647 323.378289 230.559315 323.378289 
z
" clip-path="url(#pd113a74151)" style="fill: #64748b; fill-opacity: 0.95; stroke: #f8fafc; stroke-opacity: 0.95; stroke-width: 0.35"/>
    <path d="M 110.181489 332.600807 
C 139.536157 332.600807 167.692486 320.938074 188.449371 300.181189 
C 209.206256 279.424304 220.868989 251.267976 220.868989 221.913307 
C 220.868989 192.558639 209.206256 164.402311 188.449371 143.645426 
C 167.692486 122.888541 139.536157 111.225807 110.181489 111.225807 
C 80.826821 111.225807 52.670492 122.888541 31.913607 143.645426 
C 11.156722 164.402311 -0.506011 192.558639 -0.506011 221.913307 
C -0.506011 251.267976 11.156722 279.424304 31.913607 300.181189 
C 52.670492 320.938074 80.826821 332.600807 110.181489 332.600807 
z
" clip-path="url(#pd113a74151)" style="fill: #64748b; fill-opacity: 0.95; stroke: #f8fafc; stroke-opacity: 0.95; stroke-width: 0.35"/>
    <path d="M 170.661686 297.902016 
C 200.016354 297.902016 228.172683 286.239283 248.929568 265.482398 
C 269.686453 244.725513 281.349186 216.569184 281.349186 187.214516 
C 281.349186 157.859848 269.686453 129.703519 248.929568 108.946634 
C 228.172683 88.189749 200.016354 76.527016 170.661686 76.527016 
C 141.307018 76.527016 113.150689 88.189749 92.393804 108.946634 
C 71.636919 129.703519 59.974186 157.859848 59.974186 187.214516 
C 59.974186 216.569184 71.636919 244.725513 92.393804 265.482398 
C 113.150689 286.239283 141.307018 297.902016 170.661686 297.902016 
z
" clip-path="url(#pd113a74151)" style="fill: #64748b; fill-opacity: 0.95; stroke: #f8fafc; stroke-opacity: 0.95; stroke-width: 0.35"/>
    <path d="M 231.234812 263.149909 
C 260.58948 263.149909 288.745809 251.487176 309.502694 230.730291 
C 330.259579 209.973406 341.922312 181.817077 341.922312 152.462409 
C 341.922312 123.107741 330.259579 94.951412 309.502694 74.194527 
C 288.745809 53.437642 260.58948 41.774909 231.234812 41.774909 
C 201.880144 41.774909 173.723815 53.437642 152.96693 74.194527 
C 132.210045 94.951412 120.547312 123.107741 120.547312 152.462409 
C 120.547312 181.817077 132.210045 209.973406 152.96693 230.730291 
C 173.723815 251.487176 201.880144 263.149909 231.234812 263.149909 
z
" clip-path="url(#pd113a74151)" style="fill: #64748b; fill-opacity: 0.95; stroke: #f8fafc; stroke-opacity: 0.95; stroke-width: 0.35"/>
    <path d="M 109.154693 271.741232 
C 138.509361 271.741232 166.66569 260.078499 187.422575 239.321614 
C 208.17946 218.564729 219.842193 190.4084 219.842193 161.053732 
C 219.842193 131.699064 208.17946 103.542735 187.422575 82.78585 
C 166.66569 62.028965 138.509361 50.366232 109.154693 50.366232 
C 79.800025 50.366232 51.643696 62.028965 30.886811 82.78585 
C 10.129926 103.542735 -1.532807 131.699064 -1.532807 161.053732 
C -1.532807 190.4084 10.129926 218.564729 30.886811 239.321614 
C 51.643696 260.078499 79.800025 271.741232 109.154693 271.741232 
z
" clip-path="url(#pd113a74151)" style="fill: #64748b; fill-opacity: 0.95; stroke: #f8fafc; stroke-opacity: 0.95; stroke-width: 0.35"/>
    <path d="M 170.494321 236.501523 
C 199.848989 236.501523 228.005318 224.83879 248.762202 204.081905 
C 269.519087 183.32502 281.181821 155.168691 281.181821 125.814023 
C 281.181821 96.459355 269.519087 68.303026 248.762202 47.546141 
C 228.005318 26.789257 199.848989 15.126523 170.494321 15.126523 
C 141.139653 15.126523 112.983324 26.789257 92.226439 47.546141 
C 71.469554 68.303026 59.806821 96.459355 59.806821 125.814023 
C 59.806821 155.168691 71.469554 183.32502 92.226439 204.081905 
C 112.983324 224.83879 141.139653 236.501523 170.494321 236.501523 
z
" clip-path="url(#pd113a74151)" style="fill: #64748b; fill-opacity: 0.95; stroke: #f8fafc; stroke-opacity: 0.95; stroke-width: 0.35"/>
    <path d="M 182.428626 352.464586 
C 211.783294 352.464586 239.939623 340.801853 260.696508 320.044968 
C 281.453393 299.288083 293.116126 271.131754 293.116126 241.777086 
C 293.116126 212.422418 281.453393 184.266089 260.696508 163.509205 
C 239.939623 142.75232 211.783294 131.089586 182.428626 131.089586 
C 153.073958 131.089586 124.917629 142.75232 104.160744 163.509205 
C 83.403859 184.266089 71.741126 212.422418 71.741126 241.777086 
C 71.741126 271.131754 83.403859 299.288083 104.160744 320.044968 
C 124.917629 340.801853 153.073958 352.464586 182.428626 352.464586 
z
" clip-path="url(#pd113a74151)" style="fill: #64748b; fill-opacity: 0.95; stroke: #f8fafc; stroke-opacity: 0.95; stroke-width: 0.35"/>
    <path d="M 244.572549 316.859599 
C 273.927217 316.859599 302.083546 305.196865 322.840431 284.43998 
C 343.597316 263.683096 355.260049 235.526767 355.260049 206.172099 
C 355.260049 176.817431 343.597316 148.661102 322.840431 127.904217 
C 302.083546 107.147332 273.927217 95.484599 244.572549 95.484599 
C 215.217881 95.484599 187.061552 107.147332 166.304667 127.904217 
C 145.547782 148.661102 133.885049 176.817431 133.885049 206.172099 
C 133.885049 235.526767 145.547782 263.683096 166.304667 284.43998 
C 187.061552 305.196865 215.217881 316.859599 244.572549 316.859599 
z
" clip-path="url(#pd113a74151)" style="fill: #64748b; fill-opacity: 0.95; stroke: #f8fafc; stroke-opacity: 0.95; stroke-width: 0.35"/>
    <path d="M 119.477652 326.372792 
C 148.83232 326.372792 176.988649 314.710059 197.745534 293.953174 
C 218.502419 273.196289 230.165152 245.03996 230.165152 215.685292 
C 230.165152 186.330624 218.502419 158.174295 197.745534 137.41741 
C 176.988649 116.660525 148.83232 104.997792 119.477652 104.997792 
C 90.122984 104.997792 61.966655 116.660525 41.20977 137.41741 
C 20.452885 158.174295 8.790152 186.330624 8.790152 215.685292 
C 8.790152 245.03996 20.452885 273.196289 41.20977 293.953174 
C 61.966655 314.710059 90.122984 326.372792 119.477652 326.372792 
z
" clip-path="url(#pd113a74151)" style="fill: #64748b; fill-opacity: 0.95; stroke: #f8fafc; stroke-opacity: 0.95; stroke-width: 0.35"/>
    <path d="M 182.428626 290.255748 
C 211.783294 290.255748 239.939623 278.593015 260.696508 257.83613 
C 281.453393 237.079245 293.116126 208.922916 293.116126 179.568248 
C 293.116126 150.21358 281.453393 122.057251 260.696508 101.300366 
C 239.939623 80.543481 211.783294 68.880748 182.428626 68.880748 
C 153.073958 68.880748 124.917629 80.543481 104.160744 101.300366 
C 83.403859 122.057251 71.741126 150.21358 71.741126 179.568248 
C 71.741126 208.922916 83.403859 237.079245 104.160744 257.83613 
C 124.917629 278.593015 153.073958 290.255748 182.428626 290.255748 
z
" clip-path="url(#pd113a74151)" style="fill: #64748b; fill-opacity: 0.95; stroke: #f8fafc; stroke-opacity: 0.95; stroke-width: 0.35"/>
    <path d="M 245.480269 254.080947 
C 274.834937 254.080947 302.991266 242.418213 323.748151 221.661328 
C 344.505035 200.904444 356.167769 172.748115 356.167769 143.393447 
C 356.167769 114.038778 344.505035 85.88245 323.748151 65.125565 
C 302.991266 44.36868 274.834937 32.705947 245.480269 32.705947 
C 216.125601 32.705947 187.969272 44.36868 167.212387 65.125565 
C 146.455502 85.88245 134.792769 114.038778 134.792769 143.393447 
C 134.792769 172.748115 146.455502 200.904444 167.212387 221.661328 
C 187.969272 242.418213 216.125601 254.080947 245.480269 254.080947 
z
" clip-path="url(#pd113a74151)" style="fill: #64748b; fill-opacity: 0.95; stroke: #f8fafc; stroke-opacity: 0.95; stroke-width: 0.35"/>
    <path d="M 118.546026 262.907569 
C 147.900694 262.907569 176.057023 251.244835 196.813908 230.48795 
C 217.570793 209.731065 229.233526 181.574737 229.233526 152.220069 
C 229.233526 122.8654 217.570793 94.709072 196.813908 73.952187 
C 176.057023 53.195302 147.900694 41.532569 118.546026 41.532569 
C 89.191358 41.532569 61.035029 53.195302 40.278144 73.952187 
C 19.521259 94.709072 7.858526 122.8654 7.858526 152.220069 
C 7.858526 181.574737 19.521259 209.731065 40.278144 230.48795 
C 61.035029 251.244835 89.191358 262.907569 118.546026 262.907569 
z
" clip-path="url(#pd113a74151)" style="fill: #64748b; fill-opacity: 0.95; stroke: #f8fafc; stroke-opacity: 0.95; stroke-width: 0.35"/>
    <path d="M 195.003473 346.895086 
C 224.358141 346.895086 252.51447 335.232353 273.271355 314.475468 
C 294.02824 293.718583 305.690973 265.562254 305.690973 236.207586 
C 305.690973 206.852918 294.02824 178.696589 273.271355 157.939704 
C 252.51447 137.18282 224.358141 125.520086 195.003473 125.520086 
C 165.648805 125.520086 137.492476 137.18282 116.735591 157.939704 
C 95.978706 178.696589 84.315973 206.852918 84.315973 236.207586 
C 84.315973 265.562254 95.978706 293.718583 116.735591 314.475468 
C 137.492476 335.232353 165.648805 346.895086 195.003473 346.895086 
z
" clip-path="url(#pd113a74151)" style="fill: #64748b; fill-opacity: 0.95; stroke: #f8fafc; stroke-opacity: 0.95; stroke-width: 0.35"/>
    <path d="M 195.194796 281.96017 
C 224.549464 281.96017 252.705793 270.297437 273.462678 249.540552 
C 294.219563 228.783667 305.882296 200.627339 305.882296 171.27267 
C 305.882296 141.918002 294.219563 113.761673 273.462678 93.004789 
C 252.705793 72.247904 224.549464 60.58517 195.194796 60.58517 
C 165.840128 60.58517 137.683799 72.247904 116.926914 93.004789 
C 96.17003 113.761673 84.507296 141.918002 84.507296 171.27267 
C 84.507296 200.627339 96.17003 228.783667 116.926914 249.540552 
C 137.683799 270.297437 165.840128 281.96017 195.194796 281.96017 
z
" clip-path="url(#pd113a74151)" style="fill: #64748b; fill-opacity: 0.95; stroke: #f8fafc; stroke-opacity: 0.95; stroke-width: 0.35"/>
   </g>
  </g>
 </g>
 <defs>
  <clipPath id="pd113a74151">
   <rect x="16.442385" y="22.318125" width="323.236364" height="323.236364"/>
  </clipPath>
 </defs>
</svg>
