<svg xmlns="http://www.w3.org/2000/svg" width="1180" height="620" viewBox="0 0 1180 620">
  <defs>
    <marker id="arrow" markerWidth="12" markerHeight="12" refX="9" refY="6" orient="auto">
      <path d="M0,0 L12,6 L0,12 z" fill="#223241"/>
    </marker>
  </defs>
  <rect width="1180" height="620" fill="#fcfbf7"/>
  <text x="42" y="52" font-size="30" font-family="Georgia, serif" fill="#18212b">IPF Sector Reduction</text>
  <text x="42" y="82" font-size="16" font-family="Helvetica, Arial, sans-serif" fill="#56616d">
    Inverse pole figures keep one representative direction per symmetry class by reducing all equivalent poles into a supported crystal-class sector.
  </text>

  <rect x="56" y="122" width="296" height="392" rx="24" fill="#fffdf9" stroke="#ddd6ca" stroke-width="1.5"/>
  <rect x="442" y="122" width="296" height="392" rx="24" fill="#fffdf9" stroke="#ddd6ca" stroke-width="1.5"/>
  <rect x="828" y="122" width="296" height="392" rx="24" fill="#fffdf9" stroke="#ddd6ca" stroke-width="1.5"/>

  <text x="92" y="162" font-size="25" font-family="Georgia, serif" fill="#21402c">1. Start with a direction</text>
  <g transform="translate(204,324)">
    <circle cx="0" cy="0" r="112" fill="none" stroke="#cfd8e1" stroke-width="2"/>
    <circle cx="0" cy="0" r="4" fill="#1f2937"/>
    <line x1="0" y1="0" x2="80" y2="-76" stroke="#c14d39" stroke-width="4" marker-end="url(#arrow)"/>
    <text x="92" y="-82" font-size="22" font-family="Georgia, serif" fill="#8f301e">d</text>
  </g>

  <text x="478" y="162" font-size="25" font-family="Georgia, serif" fill="#5b4308">2. Generate equivalents</text>
  <g transform="translate(590,324)">
    <circle cx="0" cy="0" r="112" fill="none" stroke="#cfd8e1" stroke-width="2"/>
    <circle cx="0" cy="0" r="4" fill="#1f2937"/>
    <line x1="0" y1="0" x2="0" y2="-112" stroke="#3f78a4" stroke-width="4" marker-end="url(#arrow)"/>
    <line x1="0" y1="0" x2="98" y2="30" stroke="#c14d39" stroke-width="4" marker-end="url(#arrow)"/>
    <line x1="0" y1="0" x2="-98" y2="30" stroke="#4d7a58" stroke-width="4" marker-end="url(#arrow)"/>
    <text x="10" y="-122" font-size="18" font-family="Georgia, serif" fill="#17324a">s₁d</text>
    <text x="104" y="42" font-size="18" font-family="Georgia, serif" fill="#8f301e">s₂d</text>
    <text x="-140" y="42" font-size="18" font-family="Georgia, serif" fill="#21402c">s₃d</text>
  </g>

  <text x="860" y="162" font-size="25" font-family="Georgia, serif" fill="#17324a">3. Select the sector representative</text>
  <g transform="translate(976,324)">
    <polygon points="0,-112 98,56 -98,56" fill="#eef5fb" stroke="#7aa0c0" stroke-width="2.5"/>
    <circle cx="0" cy="0" r="4" fill="#1f2937"/>
    <line x1="0" y1="0" x2="36" y2="-62" stroke="#c14d39" stroke-width="4" marker-end="url(#arrow)"/>
    <text x="46" y="-68" font-size="20" font-family="Georgia, serif" fill="#8f301e">selected pole</text>
    <text x="-24" y="-126" font-size="18" font-family="Georgia, serif" fill="#17324a">sector</text>
  </g>

  <line x1="352" y1="324" x2="442" y2="324" stroke="#223241" stroke-width="3.5" marker-end="url(#arrow)"/>
  <line x1="738" y1="324" x2="828" y2="324" stroke="#223241" stroke-width="3.5" marker-end="url(#arrow)"/>

  <text x="240" y="556" font-size="18" font-family="Helvetica, Arial, sans-serif" fill="#47515c">
    Direction-space problem: reduce equivalent poles into one canonical IPF-sector location.
  </text>
</svg>
